<?xml version="1.0" standalone="no"?>
<!DOCTYPE svg PUBLIC "-//W3C//DTD SVG 20010904//EN"
 "http://www.w3.org/TR/2001/REC-SVG-20010904/DTD/svg10.dtd">
<svg version="1.0" xmlns="http://www.w3.org/2000/svg"
 width="31247.000000pt" height="7234.000000pt" viewBox="0 0 31247.000000 7234.000000"
 preserveAspectRatio="xMidYMid meet">

<g transform="translate(0.000000,7234.000000) scale(0.100000,-0.100000)"
fill="#000000" stroke="none">
<path d="M28745 61064 c-703 -45 -1254 -225 -1692 -553 -518 -388 -838 -967
-907 -1641 -46 -451 -56 -846 -63 -2400 -9 -2429 20 -3233 133 -3650 120 -439
396 -871 744 -1162 393 -330 920 -534 1575 -610 174 -20 764 -17 945 5 1002
123 1720 578 2095 1327 278 555 305 883 305 3670 0 2499 -26 2959 -195 3416
-79 214 -223 467 -375 659 -92 116 -270 288 -393 381 -395 297 -905 479 -1522
544 -105 11 -547 20 -650 14z m377 -1644 c96 -27 174 -126 201 -257 43 -201
42 -144 42 -3053 0 -2935 0 -2922 -44 -3145 -41 -204 -134 -293 -316 -303
-152 -8 -254 33 -313 126 -55 85 -75 211 -93 562 -15 314 -7 5484 9 5600 20
144 42 243 67 296 41 92 131 162 236 184 50 10 156 5 211 -10z"/>
<path d="M42635 61060 c-1102 -77 -1909 -559 -2305 -1375 -209 -430 -253 -730
-281 -1905 -14 -570 -6 -3557 10 -3890 37 -773 71 -997 197 -1313 86 -214 218
-438 367 -622 87 -108 271 -284 389 -373 362 -272 830 -447 1401 -524 141 -19
209 -22 517 -23 438 0 636 20 959 100 698 172 1223 539 1559 1091 151 247 261
545 306 834 63 397 86 1183 86 2985 0 2107 -28 2800 -125 3185 -154 609 -556
1139 -1092 1441 -348 197 -755 320 -1233 374 -166 19 -579 27 -755 15z m455
-1645 c136 -48 190 -156 222 -450 19 -177 19 -5533 0 -5745 -32 -354 -75 -461
-209 -527 -46 -22 -74 -28 -148 -31 -208 -9 -320 75 -359 268 -41 206 -41 204
-41 3125 0 2967 -1 2894 46 3095 37 158 112 240 254 277 60 15 173 10 235 -12z"/>
<path d="M67995 61060 c-817 -56 -1464 -313 -1871 -743 -343 -363 -483 -798
-525 -1632 -19 -379 0 -782 52 -1075 76 -438 262 -853 513 -1149 177 -210 541
-484 1416 -1068 607 -405 903 -624 1076 -797 75 -75 99 -106 132 -176 87 -181
131 -432 148 -840 15 -380 -43 -645 -171 -788 -90 -100 -195 -138 -360 -129
-117 6 -171 23 -240 75 -88 67 -130 181 -154 421 -7 62 -11 388 -11 812 l0
709 -1165 0 -1165 0 0 -447 c0 -723 27 -1076 116 -1494 33 -159 109 -390 164
-499 283 -564 948 -989 1790 -1144 283 -52 398 -61 795 -61 388 0 499 8 765
56 607 108 1167 375 1510 720 202 203 318 419 399 744 129 518 145 1488 36
2164 -78 478 -211 831 -416 1103 -82 109 -341 367 -503 501 -358 297 -803 602
-1436 985 -716 434 -851 576 -923 977 -30 165 -32 593 -4 723 25 114 51 181
100 255 82 122 184 173 342 171 160 -2 269 -68 314 -190 48 -127 54 -205 58
-766 l5 -528 1164 0 1164 0 0 303 c0 853 -76 1409 -237 1732 -111 222 -321
437 -586 602 -402 249 -895 402 -1472 458 -193 19 -641 27 -820 15z"/>
<path d="M19620 59905 l0 -965 740 0 740 0 0 -3855 0 -3855 1255 0 1255 0 0
3855 0 3855 745 0 745 0 -2 963 -3 962 -2737 3 -2738 2 0 -965z"/>
<path d="M33300 56050 l0 -4820 1255 0 1255 0 2 2052 3 2052 474 -1930 c261
-1061 487 -1984 503 -2051 l30 -123 1295 0 c1228 0 1294 1 1289 18 -3 9 -357
1198 -786 2642 l-782 2625 716 2167 c394 1191 716 2171 716 2177 0 8 -332 11
-1170 11 l-1171 0 -8 -22 c-5 -13 -255 -851 -557 -1864 l-549 -1840 -3 1863
-2 1863 -1255 0 -1255 0 0 -4820z"/>
<path d="M49900 56050 l0 -4820 1095 0 1095 0 2 3160 3 3160 453 -3138 c250
-1725 456 -3147 459 -3160 l5 -22 776 2 776 3 430 3215 c370 2759 432 3205
437 3145 4 -38 7 -1486 8 -3217 l1 -3148 1095 0 1095 0 0 4820 0 4820 -1629 0
-1629 0 -5 -22 c-3 -13 -133 -1021 -289 -2241 -155 -1220 -286 -2210 -290
-2200 -8 22 -339 2314 -404 2798 -59 447 -132 950 -194 1342 -28 175 -50 318
-50 320 0 2 -729 3 -1620 3 l-1620 0 0 -4820z"/>
<path d="M59830 60861 c0 -10 -1268 -9575 -1273 -9609 l-4 -22 1296 2 1296 3
75 863 74 862 448 0 c247 0 448 -3 449 -7 0 -5 30 -393 67 -863 l67 -855 1281
-3 1281 -2 -4 27 c-3 16 -325 2184 -717 4818 l-712 4790 -1812 3 c-1026 1
-1812 -2 -1812 -7z m1960 -2706 c98 -1193 204 -2319 300 -3173 17 -145 30
-274 30 -288 l0 -24 -430 0 -429 0 5 48 c2 26 16 173 30 327 46 510 142 1357
255 2230 64 497 177 1339 187 1385 8 43 3 97 52 -505z"/>
<path d="M164385 54829 c-709 -484 -1326 -905 -1371 -935 l-81 -55 -1411 871
c-776 479 -1414 872 -1418 873 -5 1 -147 -734 -316 -1633 -170 -899 -310
-1635 -311 -1636 -1 -1 -728 -173 -1616 -383 -888 -209 -1616 -383 -1619 -385
-2 -3 417 -621 932 -1376 515 -754 936 -1373 936 -1376 0 -3 -391 -640 -870
-1414 -478 -775 -870 -1413 -870 -1417 0 -4 729 -145 1620 -313 891 -168 1620
-307 1620 -310 -1 -3 -1386 -1445 -3079 -3205 -1694 -1760 -3077 -3203 -3075
-3206 2 -4 1239 -894 2749 -1980 2736 -1966 2745 -1973 2726 -1993 -10 -12
-2128 -2518 -4706 -5571 -2578 -3052 -4701 -5564 -4719 -5582 -31 -31 -60 -38
-2421 -598 -1314 -311 -2398 -569 -2407 -573 -11 -5 231 -123 773 -376 455
-213 784 -373 777 -377 -7 -4 -664 -219 -1460 -479 -796 -260 -1446 -476
-1444 -479 2 -3 407 -184 900 -401 492 -217 892 -398 888 -402 -4 -4 -837
-325 -1852 -713 -1015 -389 -1848 -710 -1852 -713 -4 -4 721 -194 1610 -422
l1617 -415 98 -95 98 -95 579 -1669 c319 -918 582 -1671 585 -1674 3 -3 5 1 5
9 0 11 511 3478 523 3548 1 8 222 -455 491 -1028 269 -573 492 -1043 495
-1046 4 -2 50 834 104 1858 54 1024 99 1871 100 1882 1 11 245 -462 542 -1052
297 -589 543 -1069 546 -1065 3 4 52 779 108 1722 56 943 105 1734 109 1757
l7 42 575 -981 575 -980 3 54 c2 29 22 992 46 2140 l42 2086 44 49 c25 26
2655 2804 5845 6172 3190 3368 5801 6127 5802 6130 2 3 -1280 859 -2847 1901
-1568 1042 -2850 1895 -2850 1896 0 9 3581 5005 3587 5005 4 0 131 -521 282
-1158 150 -637 275 -1160 277 -1162 1 -2 618 417 1371 930 752 514 1375 934
1383 933 8 0 647 -390 1418 -867 772 -477 1407 -867 1411 -867 4 0 146 735
315 1633 169 897 309 1633 310 1634 1 2 2891 686 3189 755 31 8 46 16 43 24
-3 7 -421 622 -928 1366 -508 744 -927 1359 -932 1366 -4 7 315 534 863 1421
479 776 871 1415 871 1420 0 6 -3 11 -7 11 -9 0 -3257 612 -3259 614 -1 0
-167 701 -368 1556 -422 1786 -397 1680 -405 1680 -3 0 -586 -396 -1296 -881z
m1209 534 c9 -38 174 -734 366 -1547 192 -813 353 -1482 357 -1487 4 -4 708
-139 1563 -300 855 -161 1558 -295 1561 -298 4 -3 -370 -616 -831 -1361 l-837
-1355 40 -60 c23 -33 427 -626 900 -1318 472 -693 857 -1260 855 -1262 -2 -1
-700 -167 -1552 -368 -852 -202 -1550 -368 -1551 -369 -1 -2 -134 -703 -295
-1558 -161 -855 -296 -1559 -301 -1564 -5 -6 -2310 1405 -2695 1651 -19 12
-125 -58 -1340 -888 -1312 -896 -1319 -900 -1326 -872 -37 146 -518 2194 -518
2207 0 12 2263 3192 2315 3254 2 2 27 -12 56 -31 133 -85 313 -154 473 -182
115 -20 308 -19 427 1 392 67 736 322 915 677 94 187 135 359 135 577 0 331
-118 628 -344 866 -244 258 -566 396 -922 396 -482 0 -914 -265 -1130 -695
-94 -185 -135 -361 -135 -572 0 -317 102 -588 315 -838 l67 -78 -114 -117
c-62 -65 -603 -627 -1202 -1250 -750 -779 -1094 -1131 -1105 -1128 -9 3 -700
134 -1536 291 -836 157 -1529 289 -1541 293 -19 6 48 119 758 1267 428 693
805 1304 838 1357 l59 97 -899 1317 c-495 725 -898 1319 -897 1321 2 1 700
167 1553 369 852 201 1550 366 1551 367 0 1 132 700 293 1552 160 853 294
1558 298 1567 6 14 241 -128 1357 -817 743 -459 1355 -835 1362 -835 6 0 600
402 1320 894 719 492 1311 895 1314 895 4 1 14 -29 23 -66z m-16315 -31830
c-8 -10 -1055 -1251 -2328 -2758 -1273 -1507 -2314 -2741 -2315 -2742 -3 -4
-2666 682 -2666 688 0 3 810 316 1800 695 990 379 1800 691 1800 694 0 3 -398
181 -885 395 -486 214 -881 393 -877 397 4 3 657 219 1452 478 795 260 1446
473 1448 474 1 2 -343 164 -765 362 -422 197 -760 360 -752 362 8 2 928 221
2044 486 1117 266 2036 484 2044 485 11 1 11 -2 0 -16z m776 -2158 c-19 -935
-36 -1717 -37 -1737 -3 -33 -56 54 -568 927 -311 530 -566 962 -568 960 -1 -1
-50 -780 -107 -1730 -58 -950 -106 -1729 -107 -1730 -2 -2 -246 480 -543 1071
-297 590 -542 1070 -546 1066 -3 -4 -47 -803 -98 -1777 -51 -973 -96 -1808
-99 -1854 l-7 -83 -465 990 c-256 545 -468 988 -471 984 -3 -4 -117 -761 -253
-1682 -136 -921 -251 -1690 -255 -1709 -6 -29 -71 152 -470 1302 l-464 1336
89 94 c3636 3839 4998 5276 5000 5274 2 -2 -12 -768 -31 -1702z"/>
<path d="M18798 48263 l-188 -196 0 -1598 0 -1598 235 -211 235 -210 129 0
c410 0 850 -89 1126 -227 244 -123 432 -309 488 -483 9 -30 1250 -4296 2758
-9480 1507 -5184 2742 -9433 2745 -9442 5 -17 148 -18 2828 -18 l2824 0 24 78
c13 42 573 1849 1243 4014 671 2166 1222 3938 1225 3938 3 0 538 -1806 1191
-4013 l1185 -4012 2741 -3 c2605 -2 2742 -1 2747 15 3 10 1187 4113 2631 9118
1444 5005 2646 9160 2671 9234 248 728 697 1185 1238 1260 43 6 229 11 414 11
l337 0 213 213 212 212 -2 1590 -3 1590 -39 79 c-73 145 -198 246 -381 308
l-70 23 -4010 3 c-2437 1 -4029 -1 -4060 -7 -188 -35 -338 -160 -443 -371
l-47 -95 -3 -1540 -2 -1540 227 -227 227 -227 555 -4 c604 -4 607 -4 723 -63
99 -50 171 -143 184 -236 5 -37 -195 -810 -1325 -5113 -1432 -5453 -1341
-5108 -1346 -5103 -11 11 -2509 9719 -2520 9797 -38 248 7 433 134 554 68 65
135 101 239 129 74 19 103 20 726 18 l650 -1 208 208 208 208 0 1616 0 1616
-220 192 -220 191 -4378 0 -4378 0 -232 -181 -232 -182 0 -1812 0 -1812 102
-7 c296 -21 515 -97 697 -242 147 -118 261 -295 317 -489 14 -49 311 -1015
659 -2146 l634 -2056 -1043 -3329 c-574 -1831 -1060 -3382 -1080 -3448 -21
-65 -39 -116 -41 -114 -5 5 -2833 11071 -2851 11159 -23 109 -21 278 5 359 42
132 129 220 260 260 58 18 93 20 435 20 l371 0 213 235 212 234 0 1609 0 1609
-244 167 -244 166 -4819 0 -4818 -1 -187 -196z"/>
<path d="M280730 48419 c-3004 -108 -5541 -967 -7514 -2545 -1185 -949 -2135
-2110 -2868 -3509 -1160 -2212 -1674 -4918 -1423 -7485 119 -1212 422 -2469
863 -3575 712 -1786 1757 -3274 3117 -4442 1060 -909 2299 -1599 3692 -2057
1032 -338 2128 -547 3318 -630 430 -31 758 -39 1358 -33 578 5 732 11 1142 42
2230 169 4190 757 5880 1763 1519 905 2812 2182 3749 3706 1073 1744 1691
3777 1796 5915 13 265 13 932 0 1214 -130 2768 -1016 5318 -2533 7285 -133
172 -337 419 -495 597 -149 168 -669 688 -837 837 -591 524 -1222 972 -1914
1357 -214 120 -669 347 -891 445 -1702 754 -3683 1134 -5870 1124 -195 0 -452
-5 -570 -9z m1028 -4429 c1488 -106 2677 -748 3558 -1921 855 -1137 1388
-2772 1534 -4704 50 -669 52 -1468 4 -2090 -71 -927 -237 -1791 -492 -2560
-379 -1142 -971 -2120 -1682 -2784 -822 -765 -1751 -1191 -2883 -1320 -1086
-124 -2047 60 -2861 549 -1354 813 -2327 2461 -2776 4700 -368 1833 -286 3773
235 5575 476 1646 1286 2942 2320 3710 664 495 1424 777 2270 844 150 12 607
12 773 1z"/>
<path d="M70782 47905 l-212 -265 0 -1485 0 -1485 36 -73 c98 -195 252 -376
369 -433 l60 -29 800 -5 800 -5 95 -33 c283 -99 448 -299 522 -633 l23 -104 0
-7045 0 -7045 -27 -99 c-110 -399 -402 -630 -852 -675 -67 -7 -360 -11 -757
-11 l-647 0 -211 -222 -211 -223 0 -1506 c0 -1502 0 -1507 21 -1575 48 -159
149 -302 266 -380 31 -21 96 -52 143 -68 l85 -31 5410 0 5410 0 87 42 c228
109 377 259 441 443 l22 65 3 1445 3 1446 -216 277 -215 276 -823 4 c-803 3
-824 3 -903 24 -283 76 -448 199 -544 406 -64 138 -60 -58 -60 2962 l0 2745
3700 0 3700 0 2 -2597 c2 -1429 2 -2636 0 -2683 -13 -385 -264 -696 -647 -801
-186 -51 -194 -51 -980 -56 l-740 -5 -207 -247 -208 -246 0 -1476 c0 -1435 1
-1478 20 -1553 50 -197 180 -353 353 -423 139 -57 -250 -53 5642 -53 l5433 0
226 198 225 197 1 1600 0 1600 -213 213 -213 213 -825 -2 c-729 -1 -831 1
-886 15 -216 56 -372 195 -483 429 -70 146 -111 321 -130 551 -6 84 -10 2440
-10 7035 0 6304 1 6916 16 6987 59 290 221 483 477 568 131 44 181 46 1010 46
l789 0 234 232 234 232 0 1545 0 1546 -212 248 -212 247 -5536 0 -5535 0 -198
-261 -197 -261 2 -1517 3 -1518 54 -109 c88 -177 210 -284 396 -345 l70 -24
880 -5 c834 -5 882 -6 915 -24 258 -137 413 -495 459 -1059 7 -84 11 -811 11
-2103 l0 -1974 -3700 0 -3700 0 -2 2233 c-2 1227 -2 2275 -1 2327 2 177 56
315 162 420 74 73 150 118 261 152 l75 23 925 3 924 3 53 40 c133 103 249 295
297 489 35 146 37 233 34 1565 l-3 1310 -27 96 c-68 249 -171 419 -305 508
l-46 31 -5537 0 -5537 0 -211 -265z"/>
<path d="M97667 47863 l-217 -307 0 -1420 0 -1421 34 -97 c81 -235 225 -389
426 -454 48 -16 112 -18 530 -23 462 -6 477 -7 540 -29 380 -135 796 -496
1157 -1005 151 -212 1690 -2573 4807 -7376 577 -888 1079 -1661 1117 -1718
101 -154 148 -291 187 -542 14 -95 16 -314 19 -2066 3 -1374 1 -1985 -7 -2043
-35 -268 -171 -522 -360 -673 -85 -68 -219 -139 -318 -168 -165 -49 -200 -51
-942 -51 l-698 0 -211 -226 -211 -226 2 -1541 3 -1542 37 -77 c86 -180 265
-296 558 -361 l95 -21 5375 -3 5375 -3 68 51 c88 67 157 152 212 264 52 104
72 174 85 300 6 53 10 687 10 1548 l0 1457 -191 195 -192 195 -673 0 c-424 0
-701 4 -750 11 -156 21 -347 92 -460 169 -131 91 -259 251 -323 404 -18 43
-45 126 -59 185 l-27 106 -2 2330 -3 2330 2911 4285 c1601 2357 3037 4471
3192 4699 251 370 293 426 396 534 64 66 149 146 188 179 227 185 478 310 741
370 93 21 123 22 720 25 l622 4 0 1769 0 1769 -181 260 -181 261 -4456 0
-4457 0 -247 -188 -247 -187 2 -1575 2 -1575 37 -89 c77 -183 187 -325 293
-377 l50 -24 903 -3 c795 -2 902 -4 902 -17 0 -61 -154 -458 -244 -630 -35
-66 -402 -649 -817 -1295 -415 -646 -1101 -1714 -1524 -2372 l-768 -1198 -73
0 c-68 0 -74 2 -92 28 -10 15 -643 1079 -1406 2365 -763 1286 -1412 2376
-1442 2423 -120 184 -178 356 -156 463 19 90 76 146 185 179 45 14 149 16 812
19 l760 4 223 222 222 222 0 1600 0 1600 -203 203 -202 202 -5620 0 -5621 0
-217 -307z"/>
<path d="M173090 48134 c-157 -75 -292 -186 -351 -289 l-29 -50 0 -1675 0
-1675 196 -217 196 -218 862 0 c826 0 866 -1 940 -20 233 -59 398 -231 454
-470 16 -71 17 -482 17 -7255 0 -6915 -1 -7182 -18 -7244 -87 -306 -346 -489
-751 -530 -68 -7 -374 -11 -810 -11 l-701 0 -130 -132 c-135 -138 -219 -243
-274 -339 l-31 -56 0 -1489 1 -1489 210 -247 211 -248 5507 0 5506 1 223 195
222 194 0 1598 -1 1597 -210 213 -211 213 -801 -1 c-683 -2 -816 1 -897 14
-245 40 -421 133 -497 264 -49 84 -82 262 -103 562 -6 91 -10 1039 -10 2543
l0 2397 643 0 642 -1 3599 -4894 3599 -4895 3684 0 3683 0 73 36 c167 84 338
218 399 313 l28 45 0 1596 0 1596 -222 211 -223 212 -645 1 c-362 0 -693 5
-755 10 -248 24 -546 107 -777 217 -201 97 -361 203 -528 353 -64 58 -736 843
-2481 2900 -1317 1552 -2395 2824 -2397 2829 -1 4 53 24 120 45 472 146 1067
387 1583 642 938 463 1739 1013 2374 1629 851 827 1372 1850 1581 3104 83 502
113 920 114 1601 1 510 0 532 -50 815 -163 946 -693 2045 -1387 2880 -593 713
-1211 1184 -2087 1590 -1380 640 -2969 983 -4890 1055 -168 6 -2836 10 -7295
10 l-7031 0 -74 -36z m13612 -4657 c499 -73 888 -186 1238 -362 728 -365 1168
-956 1284 -1725 180 -1186 -316 -2060 -1440 -2539 -515 -219 -1178 -355 -1847
-379 -106 -4 -1080 -6 -2164 -4 l-1973 2 0 2515 0 2515 2393 -3 c2192 -3 2402
-4 2509 -20z"/>
<path d="M199682 47908 l-222 -262 0 -1516 0 -1516 44 -72 c107 -173 239 -312
344 -364 l67 -33 875 -5 c823 -5 878 -6 925 -24 241 -90 381 -295 430 -632 14
-99 15 -798 13 -7239 l-3 -7130 -29 -84 c-16 -46 -52 -118 -79 -159 -121 -186
-303 -299 -577 -360 l-115 -26 -727 -3 -726 -4 -95 -79 c-120 -100 -235 -224
-298 -320 l-49 -74 0 -1531 0 -1531 201 -232 202 -232 9901 0 9901 0 1577
4548 c867 2501 1578 4553 1580 4561 2 10 -456 178 -1632 598 -899 321 -1642
584 -1650 585 -8 0 -138 -69 -289 -154 l-274 -156 -67 -193 c-362 -1054 -966
-2129 -1644 -2925 -143 -168 -527 -552 -686 -686 -577 -486 -1295 -900 -2050
-1181 -664 -247 -1401 -401 -2140 -447 -101 -6 -864 -10 -1977 -10 l-1813 0 0
2855 0 2856 963 -3 962 -3 85 -28 c185 -62 317 -145 443 -276 128 -134 206
-271 266 -466 74 -245 81 -345 81 -1315 l0 -805 226 -182 226 -183 1377 0
1377 0 72 35 c178 85 306 203 381 352 66 132 61 -283 61 4896 l0 4707 -56 87
c-116 180 -262 346 -341 386 -29 16 -151 17 -1449 17 l-1416 0 -66 -46 c-126
-90 -253 -237 -302 -347 -50 -113 -50 -113 -50 -884 0 -594 -3 -742 -15 -832
-44 -312 -169 -577 -358 -758 -163 -155 -331 -238 -587 -289 -75 -15 -191 -18
-987 -21 l-903 -4 0 2400 0 2401 1733 3 c2068 2 2269 1 2457 -13 1368 -103
2507 -620 3458 -1570 726 -724 1340 -1710 1803 -2892 40 -104 78 -188 83 -188
21 0 3626 1323 3626 1331 0 6 -2687 7665 -2772 7902 l-10 27 -9532 0 -9531 0
-223 -262z"/>
<path d="M223380 48141 c-221 -72 -385 -203 -468 -370 l-37 -75 -3 -1547 -2
-1548 90 -134 c98 -148 222 -287 281 -318 37 -18 66 -19 773 -19 472 0 762 -4
812 -11 390 -54 649 -246 693 -516 9 -50 11 -1932 9 -7233 l-3 -7165 -21 -70
c-48 -159 -106 -266 -197 -363 -101 -106 -260 -198 -417 -241 -173 -48 -234
-51 -928 -51 l-653 0 -219 -202 -220 -203 3 -1575 2 -1575 53 -108 c87 -178
209 -283 374 -322 55 -13 737 -15 5463 -15 3408 0 5492 4 5650 10 1100 44
2229 176 3260 381 2341 466 4230 1293 5535 2423 403 350 737 712 1176 1277
1521 1956 2397 4046 2659 6344 92 810 109 1710 49 2600 -36 548 -102 1138
-175 1569 -289 1719 -1030 3487 -2065 4929 -908 1262 -2018 2236 -3194 2800
-1053 506 -2289 909 -3425 1116 -634 116 -1107 170 -1960 223 -142 9 -1786 12
-6500 15 l-6310 2 -85 -28z m11010 -4511 c256 -12 426 -25 650 -51 1693 -193
2971 -869 3845 -2034 673 -896 1101 -2075 1284 -3540 63 -506 90 -934 98
-1545 7 -610 -12 -1057 -68 -1550 -222 -1969 -954 -3480 -2179 -4500 -1071
-891 -2504 -1397 -4220 -1490 -366 -20 -930 -11 -1315 20 -131 11 -432 45
-492 56 l-33 6 0 7273 0 7272 138 7 c75 4 304 18 507 31 336 22 678 41 875 48
197 8 727 6 910 -3z"/>
<path d="M257267 47934 l-187 -235 1 -1597 0 -1597 184 -172 185 -173 803 0
c780 0 805 -1 882 -21 324 -84 540 -310 621 -649 17 -72 19 -321 27 -5450 4
-2956 8 -5478 7 -5605 -1 -573 -64 -1111 -190 -1620 -259 -1051 -765 -1731
-1485 -2000 -190 -71 -545 -152 -843 -192 -185 -25 -680 -25 -847 0 -550 82
-1000 301 -1355 658 -183 183 -321 380 -445 634 -92 187 -151 348 -196 530
-97 394 -114 677 -95 1580 11 543 -3 762 -66 1070 -116 570 -475 1188 -916
1580 -440 391 -991 620 -1682 699 -879 101 -1579 -29 -2211 -409 -525 -317
-967 -821 -1268 -1446 -312 -648 -477 -1408 -498 -2299 -14 -596 63 -1087 262
-1685 98 -293 179 -486 339 -810 467 -940 1154 -1794 2034 -2528 1305 -1088
2951 -1788 4682 -1991 480 -57 575 -61 1290 -61 653 0 848 6 1330 41 1348 97
2513 330 3513 703 288 108 531 214 827 362 901 452 1592 998 2326 1839 353
404 544 633 662 797 708 974 1087 2252 1182 3973 6 107 13 218 16 245 3 28 9
2584 13 5680 l6 5630 28 100 c49 180 133 325 244 425 69 61 206 131 318 162
79 22 89 23 895 26 l815 3 203 202 202 202 -1 1615 0 1615 -192 202 -192 203
-5520 0 -5520 0 -188 -236z"/>
<path d="M54183 48108 c-12 -29 -1639 -4229 -3618 -9333 -2584 -6666 -3614
-9312 -3657 -9395 -195 -375 -471 -676 -726 -792 -138 -63 -181 -68 -546 -68
-384 0 -405 -3 -586 -92 -88 -44 -118 -65 -186 -133 -57 -56 -90 -99 -113
-145 -63 -131 -61 -56 -61 -1703 l0 -1499 26 -66 c15 -36 43 -93 62 -127 48
-82 163 -195 233 -229 125 -60 -222 -56 4444 -56 3800 0 4287 2 4340 15 164
42 295 149 364 297 75 159 71 62 71 1738 l0 1501 -29 59 c-73 146 -193 266
-335 335 -181 88 -178 88 -871 95 l-610 6 -70 25 c-144 53 -256 122 -342 211
-51 52 -133 171 -133 192 0 6 224 633 497 1393 l498 1383 3171 0 3170 0 412
-1252 c226 -689 416 -1273 421 -1298 6 -25 11 -79 11 -120 1 -305 -220 -501
-620 -550 -51 -6 -388 -10 -857 -10 l-773 0 0 -1804 0 -1803 33 -64 c48 -95
161 -203 267 -257 47 -23 121 -52 165 -65 l80 -22 5215 -3 5214 -2 101 49 c55
28 129 69 165 92 96 63 205 175 238 245 l27 59 3 1565 2 1564 -202 203 -202
202 -430 3 -431 4 -78 27 c-220 77 -433 233 -616 452 -149 179 -321 469 -429
725 -23 52 -1628 4231 -3567 9285 -1940 5055 -3529 9196 -3532 9203 -4 9 -573
12 -2798 12 l-2792 0 -20 -52z m2692 -9895 l802 -2278 -824 -3 c-454 -1 -1193
-1 -1643 0 l-817 3 835 2282 c460 1256 838 2281 840 2278 3 -2 366 -1029 807
-2282z"/>
<path d="M136908 48136 c-216 -89 -357 -250 -424 -486 -18 -62 -19 -140 -22
-1585 l-3 -1520 42 -82 c71 -141 183 -246 316 -296 58 -22 63 -22 878 -27
l820 -6 99 -27 c290 -79 460 -233 533 -482 17 -57 18 -338 23 -5310 3 -2887 2
-5338 -2 -5445 -22 -554 -117 -1101 -278 -1582 -146 -440 -355 -837 -610
-1158 -98 -124 -320 -348 -440 -444 -117 -93 -369 -260 -524 -346 -920 -513
-2061 -659 -3077 -396 -605 157 -1126 449 -1519 852 -679 696 -1061 1723
-1107 2974 -5 113 -6 2554 -3 5425 l6 5220 22 83 c88 329 285 530 604 614 81
22 99 22 898 28 l814 5 198 240 198 240 0 1520 0 1521 -231 242 -230 242
-5470 0 -5470 0 -62 -21 c-136 -45 -247 -151 -325 -308 l-47 -94 -3 -1597 -2
-1598 44 -59 c62 -82 199 -212 271 -255 33 -20 96 -49 140 -65 l80 -28 788 -2
c877 -3 857 -2 997 -71 152 -75 266 -225 323 -427 l22 -80 6 -5635 c4 -4313 8
-5669 17 -5780 40 -470 86 -835 148 -1175 354 -1936 1135 -3401 2311 -4332
179 -143 700 -498 1098 -750 1754 -1111 3083 -1543 5115 -1663 590 -35 1727
-52 2090 -31 1456 83 2775 531 4040 1372 495 329 945 697 1399 1144 764 752
1254 1405 1606 2138 461 962 755 2166 835 3422 6 94 13 190 16 215 4 25 9
2486 13 5470 l6 5425 22 82 c50 183 119 320 222 435 58 65 193 153 291 188
159 59 181 60 1000 60 l748 0 94 72 c140 108 288 260 326 337 l32 64 0 1521 0
1521 -49 101 c-62 126 -144 236 -249 337 l-82 77 -4632 0 -4633 0 -57 -24z"/>
</g>
</svg>
